<?xml version="1.0" encoding="UTF-8" standalone="no"?>
<!-- Created with Inkscape (http://www.inkscape.org/) -->

<svg
   xmlns:dc="http://purl.org/dc/elements/1.1/"
   xmlns:cc="http://creativecommons.org/ns#"
   xmlns:rdf="http://www.w3.org/1999/02/22-rdf-syntax-ns#"
   xmlns:svg="http://www.w3.org/2000/svg"
   xmlns="http://www.w3.org/2000/svg"
   xmlns:sodipodi="http://sodipodi.sourceforge.net/DTD/sodipodi-0.dtd"
   xmlns:inkscape="http://www.inkscape.org/namespaces/inkscape"
   id="svg2985"
   version="1.1"
   inkscape:version="0.48.4 r9939"
   width="410"
   height="340"
   sodipodi:docname="jrh_logo.svg">
  <metadata
     id="metadata2991">
    <rdf:RDF>
      <cc:Work
         rdf:about="">
        <dc:format>image/svg+xml</dc:format>
        <dc:type
           rdf:resource="http://purl.org/dc/dcmitype/StillImage" />
        <dc:title></dc:title>
      </cc:Work>
    </rdf:RDF>
  </metadata>
  <defs
     id="defs2989" />
  <sodipodi:namedview
     pagecolor="#ffffff"
     bordercolor="#666666"
     borderopacity="1"
     objecttolerance="10"
     gridtolerance="10"
     guidetolerance="10"
     inkscape:pageopacity="0"
     inkscape:pageshadow="2"
     inkscape:window-width="1618"
     inkscape:window-height="1027"
     id="namedview2987"
     showgrid="false"
     inkscape:zoom="1.7469697"
     inkscape:cx="198.12771"
     inkscape:cy="174.16873"
     inkscape:window-x="54"
     inkscape:window-y="-8"
     inkscape:window-maximized="1"
     inkscape:current-layer="svg2985" />
  <path
     style="fill:#ffffff;fill-opacity:1;stroke:none"
     d="m 6.6563845,37.277617 397.4214955,0 0,193.491333 c 0,0 2.60972,71.95343 -71.20779,71.95343 -73.81751,0 -252.3962,0 -252.3962,0 0,0 -74.5631515,-2.2369 -74.5631515,-62.26022 0,-60.02333 0,-120.41946 0,-120.41946 l 79.7825655,0 0,102.15149 c 0,0 3.355343,14.167 17.149516,14.167 13.79418,0 63.00584,0 63.00584,0 l 0,-49.9573 78.66411,0 0,49.9573 64.12431,0 c 0,0 16.03107,0 16.03107,-16.03107 0,-16.03109 0,-116.31849 0,-116.31849 l -79.78255,0 0,49.21165 -79.03694,0 0,-49.58447 -159.5651075,0 z"
     id="path2995"
     inkscape:connector-curvature="0" />
</svg>
